# AST/ASF file generated using VICON BodyLanguage
# -----------------------------------------------
:version 1.10
:name VICON
:units
  mass 1.0
  length 0.45
  angle deg
:documentation
   .ast/.asf automatically generated from VICON data using
   VICON BodyBuilder and BodyLanguage model FoxedUp or BRILLIANT.MOD
:root
   order TX TY TZ RX RY RZ
   axis XYZ
   position 0 0 0  
   orientation 0 0 0 
:bonedata
  begin
     id 1 
     name lhipjoint
     direction 0.822369 -0.411937 0.392449 
     length 3.8167 
     axis 0 0 0  XYZ
  end
  begin
     id 2 
     name lfemur
     direction 0.34202 -0.939693 0  
     length 6.16791  
     axis 0 0 20  XYZ
    dof rx ry rz
    limits (-160.0 20.0)
           (-70.0 70.0)
           (-60.0 70.0)
  end
  begin
     id 3 
     name ltibia
     direction 0.34202 -0.939693 0   
     length 7.07101   
     axis 0 0 20   XYZ
    dof rx
    limits (-10.0 170.0)
  end
  begin
     id 4 
     name lfoot
     direction 0.028254 -0.0776273 0.996582   
     length 1.66799   
     axis -90 7.62852e-016 20   XYZ
    dof rx rz
    limits (-45.0 90.0)
           (-70.0 20.0)
  end
  begin
     id 5 
     name ltoes
     direction 1.53483e-011 -4.21688e-011 1   
     length 0.851674   
     axis -90 7.62852e-016 20   XYZ
    dof rx
    limits (-90.0 20.0)
  end
  begin
     id 6 
     name rhipjoint
     direction -0.822466 -0.411836 0.392353   
     length 3.81764  
     axis 0 0 0  XYZ 
  end
  begin
     id 7 
     name rfemur
     direction -0.34202 -0.939693 0   
     length 6.28636   
     axis 0 0 -20   XYZ
    dof rx ry rz
    limits (-160.0 20.0)
           (-70.0 70.0)
           (-70.0 60.0)
  end
  begin
     id 8 
     name rtibia
     direction -0.34202 -0.939693 0   
     length 6.85621   
     axis 0 0 -20   XYZ
    dof rx
    limits (-10.0 170.0)
 end
 begin
     id 9 
     name rfoot
     direction -0.0553036 -0.151945 0.98684   
     length 1.57293  
     axis -90 -7.62852e-016 -20   XYZ
    dof rx rz
    limits (-45.0 90.0)
           (-20.0 70.0)
  end
  begin
     id 10 
     name rtoes
     direction -1.53592e-011 -4.21964e-011 1   
     length 0.802812   
     axis -90 -7.62852e-016 -20   XYZ
    dof rx
    limits (-90.0 20.0)
  end
  begin
     id 11 
     name lowerback
     direction 0.00654913 0.996475 -0.0836396   
     length 1.97212   
     axis 0 0 0   XYZ
    dof rx ry rz
    limits (-20.0 45.0)
           (-30.0 30.0)
           (-30.0 30.0)
  end
  begin
     id 12 
     name upperback
     direction 0.0111875 0.994527 0.103877   
     length 1.89704   
     axis 0 0 0   XYZ
    dof rx ry rz
    limits (-20.0 45.0)
           (-30.0 30.0)
           (-30.0 30.0)
  end
  begin
     id 13 
     name thorax
     direction 0.00473652 0.989004 0.147814   
     length 1.94516   
     axis 0 0 0   XYZ
    dof rx ry rz
    limits (-20.0 45.0)
           (-30.0 30.0)
           (-30.0 30.0)
  end
  begin
     id 14 
     name lowerneck
     direction -0.00925808 0.999011 0.0434791   
     length 1.81771   
     axis 0 0 0   XYZ
    dof rx ry rz
    limits (-20.0 45.0)
           (-30.0 30.0)
           (-30.0 30.0)
  end
  begin
     id 15 
     name upperneck
     direction 0.00451595 0.964412 -0.264365   
     length 1.80434   
     axis 0 0 0   XYZ
    dof rx ry rz
    limits (-20.0 45.0)
           (-30.0 30.0)
           (-30.0 30.0)
  end
  begin
     id 16
     name head
     direction -0.00110849 0.995756 -0.0920241  
     length 1.84006  
     axis 0 0 0   XYZ
    dof rx ry rz
    limits (-20.0 45.0)
           (-30.0 30.0)
           (-30.0 30.0)
  end
  begin
     id 17 
     name lclavicle
     direction 0.921253 0.385213 0.0538957  
     length 3.67415  
     axis 0 0 0   XYZ
    dof ry rz
    limits (-20.0 10.0)
           (0.0 20.0)
  end
  begin
     id 18 
     name lhumerus
     direction 1 -4.48961e-011 6.73441e-028   
     length 4.32712   
     axis 180 -30 -90   XYZ
    dof rx ry rz
    limits (-60.0 90.0)
           (-90.0 90.0)
           (-90.0 90.0)
  end
  begin
     id 19
     name lradius
     direction 1 -4.48985e-011 -9.53507e-028   
     length 3.28587   
     axis 180 -30 -90   XYZ
    dof rx
    limits (-10.0 170.0)
  end
  begin
     id 20
     name lwrist
     direction 1 -4.48951e-011 -4.67472e-027   
     length 1.64293   
     axis 1.65735e-015 90 90   XYZ
    dof ry
    limits (-180.0 0.0)
 end
  begin
     id 21 
     name lhand
     direction 1 -4.48946e-011 -9.34945e-027   
     length 0.433158   
     axis 5.96574e-015 90 90   XYZ
    dof rx rz
    limits (-90.0 90.0)
           (-45.0 45.0)
  end
  begin
     id 22 
     name lfingers
     direction 1 -4.48882e-011 -1.86989e-026   
     length 0.349224   
     axis 1.19315e-014 90 90   XYZ
    dof rx
    limits (0.0 90.0)
  end
  begin
     id 23
     name lthumb
     direction 0.707107 -6.3493e-011 0.707107   
     length 0.501417   
     axis -90 45 2.85299e-015   XYZ
    dof rx rz
    limits (-45.0 45.0)
           (-45.0 45.0)
  end
  begin
     id 24 
     name rclavicle
     direction -0.884378 0.46502 -0.0403866   
     length 3.50218  
     axis 0 0 0   XYZ 
    dof ry rz
    limits (-10.0 20.0)
           (-20.0 0.0)
  end
  begin
     id 25 
     name rhumerus
     direction -1 -4.48964e-011 1.58188e-027  
     length 4.29104   
     axis 180 30 90   XYZ
    dof rx ry rz
    limits (-90.0 60.0)
           (-90.0 90.0)
           (-90.0 90.0)
  end
  begin
     id 26 
     name rradius
     direction -1 -4.48978e-011 -1.9722e-027   
     length 3.2272   
     axis 180 30 90   XYZ
    dof rx
    limits (-10.0 170.0)
  end
  begin
     id 27 
     name rwrist
     direction -1 -4.48969e-011 -4.67472e-027   
     length 1.6136   
     axis 1.65735e-015 -90 -90   XYZ
    dof ry
    limits (-180.0 0.0)
  end
  begin
     id 28
     name rhand
     direction -1 -4.48846e-011 -9.34945e-027   
     length 0.543623   
     axis 5.96574e-015 -90 -90   XYZ
    dof rx rz
    limits (-90.0 90.0)
           (-45.0 45.0)
  end
  begin
     id 29
     name rfingers
     direction -1 -4.49074e-011 -1.86989e-026   
     length 0.438283   
     axis 1.19315e-014 -90 -90   XYZ
    dof rx
    limits (0.0 90.0)
  end
  begin
     id 30
     name rthumb
     direction -0.707107 -6.34834e-011 0.707107   
     length 0.629289   
     axis -90 -45 -2.85299e-015   XYZ
    dof rx rz
    limits (-45.0 45.0)
           (-45.0 45.0)
  end
:hierarchy
  begin
    root lhipjoint rhipjoint lowerback
    lhipjoint lfemur
    lfemur ltibia
    ltibia lfoot
    lfoot ltoes
    rhipjoint rfemur
    rfemur rtibia
    rtibia rfoot
    rfoot rtoes
    lowerback upperback
    upperback thorax
    thorax lowerneck lclavicle rclavicle
    lowerneck upperneck
    upperneck head
    lclavicle lhumerus
    lhumerus lradius
    lradius lwrist
    lwrist lhand lthumb
    lhand lfingers
    rclavicle rhumerus
    rhumerus rradius
    rradius rwrist
    rwrist rhand rthumb
    rhand rfingers
  end

#!OML:ASF H:\GeneralSubjects\Female5\Project 1\Capture day 1\Session 1\Female5.ASF
:FULLY-SPECIFIED
:DEGREES
139
root -29.5169 15.3193 1.12125 -153.282 51.7486 -168.786
lowerback 4.79536 5.91454 3.44959
upperback -11.717 8.92646 -2.84081
thorax -14.6355 3.92262 -6.62143
lowerneck -16.8929 2.33422 7.32366
upperneck 36.036 4.20542 -1.91537
head 15.7858 3.33359 -1.10898
rclavicle 8.99501e-015 1.59028e-015
rhumerus -41.1979 39.6797 -98.8125
rradius 43.7774
rwrist -8.52427
rhand -24.5701 -18.084
rfingers 7.12502
rthumb 1.92678 -48.055
lclavicle 8.99501e-015 1.59028e-015
lhumerus -53.8634 0.0747288 60.785
lradius 28.2909
lwrist 2.00303
lhand -25.9313 28.0409
lfingers 7.12502
lthumb 0.61209 58.0197
rfemur 4.82863 -4.91724 48.861
rtibia 0.0753279
rfoot 14.4626 14.4178
rtoes 29.9834
lfemur -42.4376 -4.14609 -37.6234
ltibia 27.589
lfoot -17.3625 4.82668
ltoes -50.2201
140
root -29.301 15.3546 1.09339 -153.487 52.0554 -169.267
lowerback 4.90681 5.88381 3.21353
upperback -11.7184 8.82798 -3.08308
thorax -14.7134 3.87775 -6.76679
lowerneck -16.9254 2.3847 7.22138
upperneck 36.0429 4.32301 -1.93933
head 15.8016 3.36193 -1.07969
rclavicle -3.10104e-014 -4.13472e-014
rhumerus -40.7545 39.9032 -98.6235
rradius 43.6457
rwrist -8.21587
rhand -24.6561 -17.9951
rfingers 7.12502
rthumb 1.84373 -47.9668
lclavicle -3.10104e-014 -4.13472e-014
lhumerus -53.6685 0.254501 60.6849
lradius 27.8459
lwrist 1.65748
lhand -25.8095 27.9505
lfingers 7.12502
lthumb 0.7297 57.9289
rfemur 5.10207 -4.22526 48.7644
rtibia 0.644219
rfoot 13.6437 12.7845
rtoes 27.5804
lfemur -42.0038 -4.25166 -37.4011
ltibia 27.8446
lfoot -18.1718 4.98156
ltoes -49.7484
141
root -29.0909 15.4006 1.06532 -153.595 52.3359 -169.61
lowerback 5.02349 5.87005 3.06708
upperback -11.7085 8.7679 -3.2734
thorax -14.7725 3.84556 -6.90748
lowerneck -16.972 2.41789 7.11025
upperneck 36.077 4.41845 -1.95692
head 15.8324 3.38232 -1.04943
rclavicle -3.64273e-014 -1.51076e-014
rhumerus -40.2748 39.8959 -98.2337
rradius 43.4791
rwrist -7.85181
rhand -24.8864 -18.012
rfingers 7.12502
rthumb 1.62125 -47.9855
lclavicle -3.64273e-014 -1.51076e-014
lhumerus -53.4997 0.379854 60.7025
lradius 27.399
lwrist 1.20304
lhand -25.6976 27.8253
lfingers 7.12502
lthumb 0.837778 57.8034
rfemur 5.25802 -3.73657 48.6231
rtibia 1.37257
rfoot 13.0125 11.1677
rtoes 24.9018
lfemur -41.5354 -4.38347 -37.0389
ltibia 28.0212
lfoot -18.8288 5.34761
ltoes -49.4597
142
root -28.8878 15.4559 1.0373 -153.563 52.5911 -169.762
lowerback 5.16076 5.87195 3.04061
upperback -11.6936 8.7495 -3.40908
thorax -14.8257 3.82308 -7.06056
lowerneck -17.0423 2.43755 7.00214
upperneck 36.1412 4.49145 -1.96664
head 15.8822 3.39611 -1.01952
rclavicle 1.0635e-014 -6.67916e-014
rhumerus -39.769 39.6256 -97.6613
rradius 43.2831
rwrist -7.43272
rhand -25.2351 -18.14
rfingers 7.12502
rthumb 1.28453 -48.1159
lclavicle 1.0635e-014 -6.67916e-014
lhumerus -53.3639 0.424685 60.833
lradius 26.9793
lwrist 0.690648
lhand -25.6594 27.6812
lfingers 7.12502
lthumb 0.874677 57.6592
rfemur 5.25084 -3.54084 48.4348
rtibia 2.32591
rfoot 12.6859 9.59825
rtoes 21.7314
lfemur -40.9925 -4.48969 -36.5278
ltibia 28.0381
lfoot -19.3322 5.77955
ltoes -49.4262
143
root -28.6929 15.5184 1.00925 -153.4 52.8318 -169.726
lowerback 5.34105 5.88611 3.13376
upperback -11.6767 8.76825 -3.49699
thorax -14.8902 3.80598 -7.23693
lowerneck -17.1466 2.44689 6.9113
upperneck 36.246 4.54299 -1.97034
head 15.9597 3.4056 -0.992665
rclavicle -3.52843e-014 1.59028e-015
rhumerus -39.2549 39.1103 -96.9449
rradius 43.0672
rwrist -7.0042
rhand -25.6587 -18.3201
rfingers 7.12502
rthumb 0.875347 -48.298
lclavicle -3.52843e-014 1.59028e-015
lhumerus -53.2653 0.388495 61.0397
lradius 26.6061
lwrist 0.157495
lhand -25.7504 27.565
lfingers 7.12502
lthumb 0.786774 57.5433
rfemur 5.06007 -3.71007 48.1712
rtibia 3.53653
rfoot 12.7478 8.0511
rtoes 18.5001
lfemur -40.3356 -4.62491 -35.8708
ltibia 27.824
lfoot -19.7613 6.27365
ltoes -49.6359
144
root -28.5067 15.585 0.980705 -153.147 53.078 -169.536
lowerback 5.57871 5.90993 3.32348
upperback -11.6535 8.81672 -3.54665
thorax -14.9724 3.79162 -7.43551
lowerneck -17.2876 2.45141 6.84529
upperneck 36.3867 4.57642 -1.96653
head 16.0641 3.41283 -0.969005
rclavicle -7.62836e-015 -5.32743e-014
rhumerus -38.7456 38.4221 -96.1306
rradius 42.8348
rwrist -6.62142
rhand -26.0933 -18.4688
rfingers 7.12502
rthumb 0.455668 -48.448
lclavicle -7.62836e-015 -5.32743e-014
lhumerus -53.2037 0.282293 61.2738
lradius 26.2873
lwrist -0.347344
lhand -25.9641 27.4958
lfingers 7.12502
lthumb 0.580444 57.4747
rfemur 4.69297 -4.28843 47.794
rtibia 5.00299
rfoot 13.2671 6.46788
rtoes 15.0799
lfemur -39.5355 -4.72979 -35.1367
ltibia 27.3662
lfoot -20.1163 6.81234
ltoes -50.3633
145
root -28.3292 15.6526 0.951009 -152.856 53.3496 -169.238
lowerback 5.83237 5.90147 3.45282
upperback -11.6003 8.82324 -3.46768
thorax -15.0632 3.77119 -7.45095
lowerneck -17.4329 2.49817 6.81275
upperneck 36.5392 4.69898 -2.05434
head 16.1857 3.44798 -0.973855
rclavicle -3.68e-014 1.51076e-014
rhumerus -38.281 37.9003 -95.25
rradius 42.6131
rwrist -6.37197
rhand -26.4625 -18.5149
rfingers 7.12502
rthumb 0.0990041 -48.4946
lclavicle -3.68e-014 1.51076e-014
lhumerus -53.274 0.335939 61.4911
lradius 26.0236
lwrist -0.812575
lhand -26.2224 27.4567
lfingers 7.12502
lthumb 0.330905 57.4362
rfemur 4.16896 -5.31276 47.2655
rtibia 6.72
rfoot 14.3099 4.78415
rtoes 12.5516
lfemur -38.6108 -4.79164 -34.3802
ltibia 26.7561
lfoot -20.4403 7.35182
ltoes -51.4044
